<?xml version="1.0" encoding="utf-8"?>
<!-- Generator: Adobe Illustrator 27.4.1, SVG Export Plug-In . SVG Version: 6.00 Build 0)  -->
<svg version="1.1" xmlns="http://www.w3.org/2000/svg" xmlns:xlink="http://www.w3.org/1999/xlink" x="0px" y="0px"
	 viewBox="0 0 262.3 100" style="enable-background:new 0 0 262.3 100;" xml:space="preserve">
<style type="text/css">
	.st0{fill:#FF00FF;}
</style>
<g id="Design">
</g>
<g id="Repères">
	<g>
		<path d="M109.3,90.7v-4.4h4.4V62.8h-4.4v-4.4h13c4.3,0,7.6,1.1,9.9,3.3c2.3,2.2,3.4,5.5,3.4,9.9v6.1c0,4.4-1.2,7.7-3.4,9.9
			c-2.3,2.2-5.6,3.3-9.9,3.3H109.3z M118.7,86.2h3.6c2.8,0,4.9-0.7,6.2-2.1c1.4-1.4,2-3.5,2-6.3v-6.4c0-2.8-0.7-5-2-6.3
			c-1.4-1.4-3.4-2.1-6.2-2.1h-3.6V86.2z"/>
		<path d="M150.5,91.4c-2.3,0-4.3-0.5-6.1-1.5c-1.7-1-3.1-2.3-4-4.1S139,82,139,79.6v-0.6c0-2.4,0.5-4.4,1.4-6.2
			c1-1.8,2.3-3.1,4-4.1c1.7-1,3.7-1.5,5.9-1.5c2.2,0,4.1,0.5,5.8,1.5c1.7,1,2.9,2.3,3.9,4c0.9,1.7,1.4,3.7,1.4,6.1v1.8h-17.5
			c0.1,2,0.7,3.6,2,4.8c1.3,1.2,2.9,1.8,4.8,1.8c1.8,0,3.1-0.4,4-1.2c0.9-0.8,1.6-1.7,2.1-2.8l3.9,2c-0.4,0.9-1.1,1.8-1.9,2.7
			c-0.8,1-1.9,1.8-3.2,2.4C154.3,91.1,152.6,91.4,150.5,91.4z M143.9,77h12.6c-0.1-1.7-0.7-3.1-1.9-4c-1.1-1-2.6-1.5-4.4-1.5
			c-1.8,0-3.2,0.5-4.4,1.5C144.8,73.9,144.1,75.3,143.9,77z"/>
		<path d="M178,91.4c-2.2,0-3.9-0.4-5.1-1.2c-1.2-0.8-2.1-1.7-2.7-2.7h-0.7v3.2h-4.7V58.3h4.8V71h0.7c0.4-0.6,0.9-1.2,1.5-1.8
			c0.6-0.6,1.4-1,2.5-1.4c1-0.4,2.3-0.6,3.7-0.6c1.9,0,3.7,0.5,5.3,1.4c1.6,0.9,2.9,2.3,3.8,4c1,1.8,1.4,3.9,1.4,6.3v0.7
			c0,2.5-0.5,4.6-1.5,6.3c-1,1.7-2.3,3.1-3.8,4C181.6,90.9,179.9,91.4,178,91.4z M176.6,87.2c2.1,0,3.8-0.7,5.1-2
			c1.3-1.3,2-3.2,2-5.7v-0.4c0-2.4-0.7-4.3-2-5.6c-1.3-1.3-3-2-5.1-2c-2,0-3.7,0.7-5.1,2c-1.3,1.3-2,3.2-2,5.6v0.4
			c0,2.5,0.7,4.4,2,5.7C172.8,86.6,174.5,87.2,176.6,87.2z"/>
		<path d="M192.8,90.7V67.9h4.7v2.7h0.7c0.4-1,1-1.7,1.8-2.1c0.8-0.4,1.8-0.7,3-0.7h2.7v4.3h-2.9c-1.5,0-2.8,0.4-3.8,1.3
			c-1,0.8-1.5,2.2-1.5,3.9v13.4H192.8z"/>
		<path d="M215.7,91.4c-1.6,0-3.1-0.3-4.4-0.8c-1.3-0.6-2.3-1.4-3.1-2.5c-0.8-1.1-1.1-2.4-1.1-3.9c0-1.6,0.4-2.9,1.1-3.9
			c0.8-1,1.8-1.8,3.1-2.3c1.3-0.5,2.8-0.8,4.5-0.8h6.9v-1.5c0-1.3-0.4-2.4-1.2-3.2c-0.8-0.8-2-1.2-3.7-1.2c-1.6,0-2.9,0.4-3.7,1.2
			c-0.9,0.8-1.4,1.8-1.7,3L208,74c0.4-1.2,1-2.4,1.8-3.4c0.8-1,1.9-1.8,3.3-2.4c1.4-0.6,3-0.9,4.9-0.9c3,0,5.3,0.8,7,2.3
			c1.7,1.5,2.5,3.7,2.5,6.4v9.4c0,0.9,0.4,1.4,1.3,1.4h1.9v4h-3.6c-1.1,0-2-0.3-2.6-0.8c-0.7-0.6-1-1.3-1-2.3v-0.1h-0.7
			c-0.2,0.5-0.6,1-1.1,1.6c-0.5,0.6-1.2,1.1-2.2,1.6C218.6,91.2,217.3,91.4,215.7,91.4z M216.4,87.5c1.9,0,3.5-0.5,4.6-1.6
			c1.2-1.1,1.8-2.6,1.8-4.5v-0.5h-6.7c-1.3,0-2.3,0.3-3.1,0.8c-0.8,0.5-1.2,1.3-1.2,2.4c0,1,0.4,1.9,1.2,2.5
			C213.9,87.1,215,87.5,216.4,87.5z"/>
		<path d="M235.9,100v-4.2h12.7c0.9,0,1.3-0.5,1.3-1.4v-7h-0.7c-0.3,0.6-0.7,1.2-1.3,1.8c-0.6,0.6-1.3,1-2.3,1.4
			c-1,0.4-2.2,0.6-3.6,0.6c-1.7,0-3.3-0.4-4.6-1.2c-1.4-0.8-2.4-1.9-3.2-3.3c-0.8-1.4-1.2-3.1-1.2-5V67.9h4.8v13.4
			c0,2,0.5,3.4,1.5,4.4c1,0.9,2.4,1.4,4.1,1.4c1.9,0,3.5-0.6,4.7-1.9c1.2-1.3,1.8-3.2,1.8-5.6V67.9h4.8v27.5c0,1.4-0.4,2.5-1.2,3.3
			c-0.8,0.8-1.9,1.2-3.4,1.2H235.9z"/>
		<g>
			<path d="M113.7,51.9V24h-10v-4.5h24.9V24h-9.9v27.9H113.7z"/>
			<path d="M133.9,25.9c-0.9,0-1.7-0.3-2.3-0.9c-0.6-0.6-0.9-1.4-0.9-2.3c0-1,0.3-1.7,0.9-2.3c0.6-0.6,1.4-0.9,2.3-0.9
				c1,0,1.7,0.3,2.4,0.9c0.6,0.6,0.9,1.4,0.9,2.3c0,1-0.3,1.7-0.9,2.3C135.6,25.6,134.8,25.9,133.9,25.9z M131.5,51.9V29h4.8v22.8
				H131.5z"/>
			<path d="M150.9,51.9c-1.4,0-2.5-0.4-3.3-1.2c-0.8-0.8-1.2-1.9-1.2-3.3V33.1h-6.3v-4h6.3v-7.5h4.8V29h6.8v4h-6.8v13.4
				c0,0.9,0.4,1.4,1.3,1.4h4.8v4H150.9z"/>
			<path d="M172.4,52.5c-2.3,0-4.3-0.5-6.1-1.4c-1.8-0.9-3.2-2.3-4.2-4c-1-1.8-1.5-3.8-1.5-6.2v-0.7c0-2.4,0.5-4.5,1.5-6.2
				c1-1.7,2.4-3.1,4.2-4c1.8-1,3.8-1.4,6.1-1.4c2.3,0,4.3,0.5,6.1,1.4c1.8,1,3.2,2.3,4.2,4c1,1.7,1.5,3.8,1.5,6.2v0.7
				c0,2.4-0.5,4.5-1.5,6.2c-1,1.8-2.4,3.1-4.2,4C176.7,52,174.7,52.5,172.4,52.5z M172.4,48.2c2.1,0,3.8-0.7,5.1-2
				c1.3-1.3,2-3.2,2-5.6v-0.4c0-2.4-0.6-4.2-1.9-5.6c-1.3-1.3-3-2-5.1-2c-2.1,0-3.8,0.7-5.1,2c-1.3,1.3-2,3.2-2,5.6v0.4
				c0,2.4,0.7,4.2,2,5.6C168.7,47.6,170.3,48.2,172.4,48.2z"/>
			<path d="M197.1,52.3c-1.7,0-3.3-0.4-4.6-1.2c-1.4-0.8-2.4-1.9-3.2-3.3c-0.8-1.4-1.2-3.1-1.2-5.1V29h4.8v13.4c0,2,0.5,3.4,1.5,4.4
				c1,0.9,2.4,1.4,4.1,1.4c1.9,0,3.5-0.7,4.7-2c1.2-1.3,1.8-3.2,1.8-5.7V29h4.8v22.8H205v-3.4h-0.7c-0.4,0.9-1.2,1.8-2.3,2.6
				C200.9,51.9,199.2,52.3,197.1,52.3z"/>
			<path d="M222,52.5c-1.6,0-3.1-0.3-4.4-0.8c-1.3-0.6-2.3-1.4-3.1-2.5c-0.8-1.1-1.1-2.4-1.1-3.9c0-1.6,0.4-2.9,1.1-3.9
				c0.8-1,1.8-1.8,3.1-2.3c1.3-0.5,2.8-0.8,4.5-0.8h6.9v-1.5c0-1.3-0.4-2.4-1.2-3.2c-0.8-0.8-2-1.2-3.7-1.2c-1.6,0-2.9,0.4-3.7,1.2
				c-0.9,0.8-1.4,1.8-1.7,3l-4.4-1.4c0.4-1.2,1-2.4,1.8-3.4c0.8-1,1.9-1.8,3.3-2.4c1.4-0.6,3-0.9,4.9-0.9c3,0,5.3,0.8,7,2.3
				c1.7,1.5,2.5,3.7,2.5,6.4v9.4c0,0.9,0.4,1.4,1.3,1.4h1.9v4h-3.6c-1.1,0-2-0.3-2.6-0.8c-0.7-0.6-1-1.3-1-2.3v-0.1h-0.7
				c-0.2,0.5-0.6,1-1.1,1.6c-0.5,0.6-1.2,1.2-2.2,1.6C224.8,52.3,223.5,52.5,222,52.5z M222.7,48.6c1.9,0,3.5-0.5,4.6-1.6
				c1.2-1.1,1.8-2.6,1.8-4.5v-0.5h-6.7c-1.3,0-2.3,0.3-3.1,0.8c-0.8,0.5-1.2,1.3-1.2,2.4c0,1,0.4,1.9,1.2,2.5
				C220.2,48.3,221.3,48.6,222.7,48.6z"/>
			<path d="M240.7,51.9V29h4.7v3.4h0.7c0.4-0.9,1.2-1.8,2.3-2.6c1.1-0.8,2.8-1.2,5-1.2c1.7,0,3.3,0.4,4.6,1.2
				c1.3,0.8,2.4,1.9,3.2,3.3c0.8,1.4,1.2,3.1,1.2,5.1v13.7h-4.8V38.5c0-2-0.5-3.4-1.5-4.4c-1-0.9-2.3-1.4-4.1-1.4
				c-2,0-3.6,0.6-4.7,1.9c-1.2,1.3-1.8,3.2-1.8,5.6v11.5H240.7z"/>
		</g>
		<g>
			<path d="M80.9,9.3C74.3,3.1,64.2,0,51.9,0h-13v13h-13v64.8H13v13h38.9v-13h-13V13h13c18,0,25.9,7.9,25.9,25.9v13h13v-13
				C90.7,26.3,87.4,15.5,80.9,9.3z"/>
			<polygon points="0,0 0,25.9 13,25.9 13,13 25.9,13 25.9,0 			"/>
			<polygon points="77.8,77.8 64.8,77.8 64.8,90.7 77.8,90.7 77.8,90.7 90.7,90.7 90.7,77.8 90.7,64.8 77.8,64.8 			"/>
		</g>
	</g>
</g>
</svg>
