<?xml version="1.0" encoding="utf-8"?>
<!-- Generator: Adobe Illustrator 27.4.1, SVG Export Plug-In . SVG Version: 6.00 Build 0)  -->
<svg version="1.1" xmlns="http://www.w3.org/2000/svg" xmlns:xlink="http://www.w3.org/1999/xlink" x="0px" y="0px"
	 viewBox="0 0 100 100" style="enable-background:new 0 0 100 100;" xml:space="preserve">
<style type="text/css">
	.st0{fill:#FF00FF;}
</style>
<g id="Design">
	<g>
		<g>
			<g>
				<path d="M89.2,10.2C81.9,3.4,70.7,0,57.1,0H42.9v14.3h14.3c19.9,0,28.6,8.7,28.6,28.6v14.3H100V42.9C100,29,96.4,17.1,89.2,10.2
					z"/>
			</g>
			<g>
				<g>
					<polygon points="28.6,0 28.6,14.3 14.3,14.3 14.3,28.6 0,28.6 0,0 					"/>
				</g>
			</g>
			<g>
				<polygon points="57.1,85.7 57.1,100 14.3,100 14.3,85.7 28.6,85.7 28.6,14.3 42.9,14.3 42.9,85.7 				"/>
			</g>
		</g>
		<polygon points="85.7,71.4 85.7,85.7 71.4,85.7 71.4,100 85.7,100 85.7,100 100,100 100,85.7 100,71.4 		"/>
	</g>
</g>
<g id="Repères">
</g>
</svg>
